{"title":"Southpaw.2015.HDRip.x264-MenaceIISociety","uid":12301668,"size":1141956750,"categoryP":"video","categoryS":"movies","magnet":"?xt=urn:btih:9650451340bdb8f45670e5b4f83ca0c104f4b03a&amp;dn=Southpaw.2015.HDRip.x264-MenaceIISociety&amp;tr=udp%3A%2F%2Ftracker.openbittorrent.com%3A80&amp;tr=udp%3A%2F%2Fopen.demonii.com%3A1337&amp;tr=udp%3A%2F%2Ftracker.coppersurfer.tk%3A6969&amp;tr=udp%3A%2F%2Fexodus.desync.com%3A6969","seeders":0,"leechers":0,"uploader":"TvTeam","files":4,"time":1440709728,"description":"------------------------------------------------------------------------\n\n &lt;a href=&quot; https://www.torrenting.com&quot; rel=&quot;nofollow&quot; target=&quot;_NEW&quot;&gt; https://www.torrenting.com&lt;/a&gt;\n\nSign up is OPEN - for time being. Come and have fun\n\n.......................................................................................................................[center][img]http://i.imgur.com/Y2iWxcl.png[/img]\n\nSouthpaw.2015.HDRip.x264-MenaceIISociety &lt;a href=&quot;\nhttp://www.imdb.com/title/tt1798684/&quot; rel=&quot;nofollow&quot; target=&quot;_NEW&quot;&gt;\nhttp://www.imdb.com/title/tt1798684/&lt;/a&gt;\n\nSource: 720p.WEB-DL.AAC.2.0.H264-SRS [THANKS]\n\nGeneral\nComplete name                            : Southpaw.2015.HDRip.x264-MenaceIISociety.mp4\nFormat                                   : MPEG-4\nFormat profile                           : Base Media\nCodec ID                                 : isom\nFile size                                : 1.05 GiB\nDuration                                 : 2h 3mn\nOverall bit rate mode                    : Variable\nOverall bit rate                         : 1 217 Kbps\nEncoded date                             : UTC 2015-08-27 17:59:21\nTagged date                              : UTC 2015-08-27 17:59:21\n\nVideo\nID                                       : 1\nFormat                                   : AVC\nFormat/Info                              : Advanced Video Codec\nFormat profile                           : &lt;a class=&quot;__cf_email__&quot; href=&quot;/cdn-cgi/l/email-protection&quot; data-cfemail=&quot;efa7868887afa3dbc1de&quot;&gt;[email&amp;#160;protected]&lt;/a&gt;&lt;script data-cfhash='f9e31' type=&quot;text/javascript&quot;&gt;\n/* &lt;![CDATA[ */!function(){try{var t=&quot;currentScript&quot;in document?document.currentScript:function(){for(var t=document.getElementsByTagName(&quot;script&quot;),e=t.length;e--;)if(t[e].getAttribute(&quot;data-cfhash&quot;))return t[e]}();if(t&amp;&amp;t.previousSibling){var e,r,n,i,c=t.previousSibling,a=c.getAttribute(&quot;data-cfemail&quot;);if(a){for(e=&quot;&quot;,r=parseInt(a.substr(0,2),16),n=2;a.length-n;n+=2)i=parseInt(a.substr(n,2),16)^r,e+=String.fromCharCode(i);e=document.createTextNode(e),c.parentNode.replaceChild(e,c)}t.parentNode.removeChild(t);}}catch(u){}}()/* ]]&gt; */&lt;/script&gt;\nFormat settings, CABAC                   : Yes\nFormat settings, ReFrames                : 3 frames\nCodec ID                                 : avc1\nCodec ID/Info                            : Advanced Video Coding\nDuration                                 : 2h 3mn\nBit rate mode                            : Variable\nBit rate                                 : 1 090 Kbps\nMaximum bit rate                         : 40.0 Mbps\nWidth                                    : 720 pixels\nHeight                                   : 304 pixels\nDisplay aspect ratio                     : 2.35:1\nFrame rate mode                          : Constant\nFrame rate                               : 23.976 fps\nColor space                              : YUV\nChroma subsampling                       : 4:2:0\nBit depth                                : 8 bits\nScan type                                : Progressive\nBits/(Pixel*Frame)                       : 0.208\nStream size                              : 965 MiB (90%)\nWriting library                          : x264 core 148 r2579 73ae2d1\n\nAudio\nID                                       : 2\nFormat                                   : AAC\nFormat/Info                              : Advanced Audio Codec\nFormat profile                           : LC\nCodec ID                                 : 40\nDuration                                 : 2h 3mn\nBit rate mode                            : Variable\nBit rate                                 : 122 Kbps\nMaximum bit rate                         : 163 Kbps\nChannel(s)                               : 2 channels\nChannel positions                        : Front: L R\nSampling rate                            : 48.0 KHz\nCompression mode                         : Lossy\nStream size                              : 108 MiB (10%)\nLanguage                                 : English\nEncoded date                             : UTC 2015-08-27 16:26:41\nTagged date                              : UTC 2015-08-27 18:00:33 \n\n[img]http://s16.postimg.org/4iiruezlx/image.jpg[/img]\n[img]http://s16.postimg.org/llljpxgat/image.jpg[/img]\n[img]http://s16.postimg.org/7dvv1a3lx/image.jpg[/img]\n[img]http://s16.postimg.org/m7aim1bd1/image.jpg[/img]\n[img]http://s16.postimg.org/3wyec1txh/image.jpg[/img] \n \n[img]http://s17.postimg.org/r1iiyw8yn/Untitled_1.png[/img][/center]","torrent":{"xt":"urn:btih:9650451340bdb8f45670e5b4f83ca0c104f4b03a","amp;dn":"Southpaw.2015.HDRip.x264-MenaceIISociety","amp;tr":["udp%3A%2F%2Ftracker.openbittorrent.com%3A80","udp%3A%2F%2Fopen.demonii.com%3A1337","udp%3A%2F%2Ftracker.coppersurfer.tk%3A6969","udp%3A%2F%2Fexodus.desync.com%3A6969"],"infoHash":"9650451340bdb8f45670e5b4f83ca0c104f4b03a","infoHashBuffer":{"type":"Buffer","data":[150,80,69,19,64,189,184,244,86,112,229,180,248,60,160,193,4,244,176,58]},"announce":[],"urlList":[]}}